<svg width="32" height="32" viewBox="0 0 32 32" fill="none" xmlns="http://www.w3.org/2000/svg">
<path d="M8.00002 9.33334H14.6667C15.0203 9.33334 15.3594 9.47382 15.6095 9.72387C15.8595 9.97392 16 10.3131 16 10.6667C16 11.0203 15.8595 11.3594 15.6095 11.6095C15.3594 11.8595 15.0203 12 14.6667 12H8.00002C7.6464 12 7.30726 11.8595 7.05721 11.6095C6.80716 11.3594 6.66669 11.0203 6.66669 10.6667C6.66669 10.3131 6.80716 9.97392 7.05721 9.72387C7.30726 9.47382 7.6464 9.33334 8.00002 9.33334ZM17.3334 20H24C24.3536 20 24.6928 20.1405 24.9428 20.3905C25.1929 20.6406 25.3334 20.9797 25.3334 21.3333C25.3334 21.687 25.1929 22.0261 24.9428 22.2762C24.6928 22.5262 24.3536 22.6667 24 22.6667H17.3334C16.9797 22.6667 16.6406 22.5262 16.3905 22.2762C16.1405 22.0261 16 21.687 16 21.3333C16 20.9797 16.1405 20.6406 16.3905 20.3905C16.6406 20.1405 16.9797 20 17.3334 20ZM8.00002 14.6667H24C24.3536 14.6667 24.6928 14.8072 24.9428 15.0572C25.1929 15.3072 25.3334 15.6464 25.3334 16C25.3334 16.3536 25.1929 16.6928 24.9428 16.9428C24.6928 17.1929 24.3536 17.3333 24 17.3333H8.00002C7.6464 17.3333 7.30726 17.1929 7.05721 16.9428C6.80716 16.6928 6.66669 16.3536 6.66669 16C6.66669 15.6464 6.80716 15.3072 7.05721 15.0572C7.30726 14.8072 7.6464 14.6667 8.00002 14.6667Z" fill="#37003C"/>
</svg>
